<svg xmlns="http://www.w3.org/2000/svg" version="1.1" xmlns:xlink="http://www.w3.org/1999/xlink" xmlns:svgjs="http://svgjs.com/svgjs" width="1400" height="940" preserveAspectRatio="none" viewBox="0 0 1400 940"><g mask="url(&quot;#SvgjsMask1040&quot;)" fill="none"><rect width="1400" height="940" x="0" y="0" fill="rgba(39, 206, 197, 1)"></rect><path d="M0,600.675C114.631,619.151,231.96,575.698,329.914,513.356C428.123,450.852,508.529,359.912,549.502,250.949C589.072,145.715,576.635,30.394,552.835,-79.486C530.304,-183.509,497.131,-291.306,416.903,-361.248C340.418,-427.927,228.562,-418.247,131.256,-447.016C33.718,-475.853,-55.636,-548.309,-155.788,-530.565C-258.809,-512.312,-331.649,-425.407,-406.025,-351.823C-486.055,-272.646,-606.649,-199.432,-604.255,-86.879C-601.799,28.607,-458.83,84.177,-394.707,180.257C-343.994,256.244,-330.509,350.384,-267.98,416.986C-192.322,497.572,-109.128,583.086,0,600.675" fill="#1fa59e"></path><path d="M1400 1480.344C1502.031 1474.42 1596.392 1434.584 1683.599 1381.289 1772.442 1326.995 1851.468 1259.775 1906.03 1171.096 1965.734 1074.06 2024.525 965.308 2008.984 852.441 1993.4189999999999 739.398 1910.065 647.431 1823.663 572.894 1744.973 505.01 1644.998 473.716 1543.595 450.96 1447.679 429.435 1352.826 439.036 1254.718 445.215 1127.681 453.216 970.429 399.461 883.587 492.526 797.472 584.812 878.408 737.563 864.82 863.053 851.88 982.558 759.616 1100.386 805.747 1211.386 851.909 1322.458 984.8340000000001 1365.901 1094.416 1415.498 1191.242 1459.3220000000001 1293.897 1486.504 1400 1480.344" fill="#49ddd5"></path></g><defs><mask id="SvgjsMask1040"><rect width="1400" height="940" fill="#ffffff"></rect></mask></defs></svg>