<svg width="200" height="200" viewBox="0 0 200 200" class="css-1j8o68f"><defs id="SvgjsDefs1960"></defs><g id="SvgjsG1961" featurekey="rootContainer" transform="matrix(1,0,0,1,0,0)" fill="#090f1c"><rect y="0" height="1" width="1" opacity="0"></rect><rect y="195" width="200" height="5"></rect></g><g id="SvgjsG1962" featurekey="symbolFeature-0" transform="matrix(0.2434267786691342,0,0,0.2434267786691342,37.68214942844331,7.944270660149533)" fill="#090f1c"><path xmlns="http://www.w3.org/2000/svg" d="M448.085,222.18H115.542l-1.049-11.636l322.271-105.979c6.984-2.297,10.784-9.821,8.487-16.806l-12.264-37.292  c-2.297-6.985-9.82-10.785-16.806-8.488L57.124,160.473c-4.195,1.384-6.882,5.478-6.483,9.878l9.978,110.064  c0.397,4.353,4.246,7.558,8.598,7.16l0.512-0.041v164.738c0,10.172,8.246,18.418,18.418,18.418h343.902  c10.172,0,18.418-8.246,18.418-18.418V287.839c6.216-1.123,10.936-6.55,10.936-13.089v-39.257  C461.399,228.141,455.438,222.18,448.085,222.18z M246.027,235.66h66.454l-40.144,38.869h-66.453L246.027,235.66z M287.939,379.119  l3.912,22.076c0.824,4.656-4.223,8.207-8.541,6.009l-20.477-10.425c-1.715-0.872-3.764-0.872-5.479,0l-20.477,10.425  c-4.318,2.198-9.365-1.353-8.54-6.009l3.911-22.076c0.327-1.85-0.306-3.735-1.693-5.045l-16.566-15.637  c-3.493-3.297-1.565-9.041,3.262-9.721l22.894-3.221c1.917-0.27,3.574-1.436,4.432-3.118l10.238-20.087  c2.16-4.236,8.398-4.236,10.556,0l10.238,20.087c0.857,1.683,2.515,2.849,4.432,3.118l22.895,3.221  c4.826,0.68,6.755,6.424,3.263,9.721l-16.565,15.637C288.247,375.384,287.613,377.271,287.939,379.119z M240.999,154.676  L191.13,130.49l63.096-20.774l49.87,24.187L240.999,154.676z M125.648,152.049l49.869,24.187l-62.268,20.501l-1.447-16.055  c-0.784-8.697-5.955-15.938-13.129-19.751L125.648,152.049z M433.87,91.175l-59.545,19.604l-49.869-24.186l65.518-21.572  L433.87,91.175z M71.715,184.444c-0.492-5.479,3.551-10.32,9.031-10.813c5.48-0.492,10.321,3.551,10.813,9.031  c0.492,5.479-3.551,10.32-9.031,10.813C77.048,193.968,72.207,189.924,71.715,184.444z M89.469,270.77  c-5.48,0.492-10.321-3.552-10.813-9.031c-0.492-5.479,3.551-10.32,9.031-10.813c5.48-0.492,10.321,3.551,10.813,9.031  C98.992,265.436,94.949,270.275,89.469,270.77z M114.641,274.527c3.095-4.579,4.7-10.209,4.166-16.145l-2.049-22.724h55.304  l-40.143,38.868H114.641z M354.122,441.903h-0.445H166.515h-0.445c-3.21,0-5.812-2.978-5.812-6.65c0-3.672,2.602-6.65,5.812-6.65  h0.445h187.162h0.445c3.21,0,5.813,2.979,5.813,6.65C359.935,438.927,357.332,441.903,354.122,441.903z M407.755,274.527h-66.453  l40.144-38.868h66.453L407.755,274.527z"></path></g><g id="SvgjsG1963" featurekey="nameFeature-0" transform="matrix(1.441686079323752,0,0,1.441686079323752,-2.8826778346594875,125.6994865687218)" fill="#090f1c"><path d="M14.085 29.128 l0 6.3838 l-1.042 0.91852 l-7.4834 0 l0 -9.45 l6.7956 0 z M12.476 34.3812 l0 -4.69 l-0.88936 -1.1046 l-4.419 0 l0 6.2362 l4.8078 0 z M17.66 14.940000000000001 l0.000039062 8.6052 l-1.9952 2.4225 l1.9952 2.4765 l0 8.6227 l-3.3138 2.9218 l-12.346 0 l0 -21.219 l1.6088 0 l0 19.611 l10.13 0 l2.3134 -2.0405 l0 -7.3296 l-2.4597 -3.0545 l2.4597 -2.9882 l0 -7.3054 l-2.3159 -2.0547 l-10.128 0 l0 1.9518 l9.566 0 l0.90984 1.0308 l0 6.0296 l-1.9673 2.389 l-6.558 0 l0 -6.2399 l1.6082 0 l0 4.6323 l4.3656 0 l0 -0.00125 l0.94268 -1.1449 l0 -4.6 l-0.43104 -0.48872 l-10.045 -0.004336 l0 -5.162 l12.346 0 z M26.8464 34.8228 l8.3194 0 l0 5.1663 l-13.486 0 l0 -9.7757 l1.6318 0 l0 8.1439 l10.222 0 l0 -1.9028 l-8.3194 0 l0 -6.2411 l1.6318 0 l0 4.6094 z M33.918 23.403 l0 5.1849 l-12.238 -0.0049608 l0 -16.582 l13.379 0 l0 5.1663 l-8.2127 0 l0 6.2356 l7.0716 0 z M32.288 26.956 l-0.00058592 -1.9202 l-7.0728 0 l0 -9.4997 l8.2134 0 l0 -1.9028 l-10.116 0 l0 13.328 z M46.843999999999994 38.3574 l-0.000039062 -19.562 l1.6318 0 l0 21.194 l-5.1861 0 l0 -21.194 l1.633 0 l0 19.562 l1.9214 0 z M38.15996 12.001000000000001 l15.446 0 l0 5.1669 l-15.446 0 l0 -5.1669 z M51.974 15.536000000000001 l0 -1.9021 l-12.181 0 l0 1.9021 l12.181 0 z M57.496 38.3574 l0.59348 -2.9739 l1.664 0 l-0.9204 4.6056 l-5.273 0 l0.9204 -4.6056 l1.6634 0 l-0.59476 2.9739 l1.9468 0 z M62.058 15.536000000000001 l1.4575 0 l2.9373 14.683 l-7.3308 0 z M61.114000000000004 28.587 l3.3479 0 l-1.674 -8.3728 z M66.422 12.001000000000001 l5.5956 27.989 l-5.2742 0 l-1.2466 -6.236 l-10.69 -0.000625 l4.3476 -21.752 l7.2675 0 z M66.834 32.122 l1.2478 6.2356 l1.9443 0 l-4.9412 -24.724 l-4.592 0 l-3.697 18.489 l10.038 0 z M75.12 39.98918 l0 -27.988 l5.183 0 l0 27.988 l-5.183 0 z M76.74990000000001 13.633 l0 24.724 l1.9214 0 l0 -24.724 l-1.9214 0 z M81.936 34.8224 l5.9924 0 l0 5.1669 l-5.9924 0 l0 -1.6318 l4.3607 0 l0 -1.9028 l-4.3607 0 l0 -1.6324 z M95.32639999999999 34.8228 l8.3194 0 l0 5.1663 l-13.486 0 l0 -9.7757 l1.6318 0 l0 8.1439 l10.222 0 l0 -1.9028 l-8.3194 0 l0 -6.2411 l1.6318 0 l0 4.6094 z M102.398 23.403 l0 5.1849 l-12.238 -0.0049608 l0 -16.582 l13.379 0 l0 5.1663 l-8.2127 0 l0 6.2356 l7.0716 0 z M100.768 26.956 l-0.00058592 -1.9202 l-7.0728 0 l0 -9.4997 l8.2134 0 l0 -1.9028 l-10.116 0 l0 13.328 z M123.12100000000001 40.0028125 l0.018008 0.035938 l-5.5688 0 l-5.658 -14.688 l0 14.688 l-5.1564 0 l0 -28.037 l5.5514 0 l10.814 27.998 l0 0.0030859 z M118.675 38.4281 l2.1037 0 l-9.5776 -24.817 l-2.8368 0 l0 24.817 l1.9381 0 l0 -21.738 z M119.59100000000001 13.611 l-0.000039062 12.767 l-1.61 -4.1704 l0 -10.207 l5.1403 0 l0 23.522 l-1.6113 -4.1732 l0 -17.739 l-1.9189 0 z M133.964 38.3574 l-0.000039062 -19.562 l1.6318 0 l0 21.194 l-5.1861 0 l0 -21.194 l1.633 0 l0 19.562 l1.9214 0 z M125.27996 12.001000000000001 l15.446 0 l0 5.1669 l-15.446 0 l0 -5.1669 z M139.094 15.536000000000001 l0 -1.9021 l-12.181 0 l0 1.9021 l12.181 0 z"></path></g></svg>